<svg width="32" height="32" viewBox="0 0 32 32" fill="none" xmlns="http://www.w3.org/2000/svg">
<path d="M20 12V14H14C12.9391 14 11.9217 14.4214 11.1716 15.1716C10.4214 15.9217 10 16.9391 10 18V22C10 23.0609 10.4214 24.0783 11.1716 24.8284C11.9217 25.5786 12.9391 26 14 26H24C25.0609 26 26.0783 25.5786 26.8284 24.8284C27.5786 24.0783 28 23.0609 28 22V18C28 17.2979 27.8151 16.6081 27.4641 16.0001C27.113 15.392 26.6081 14.8871 26 14.536V12.34C28.33 13.164 30 15.386 30 17.998V21.998C30 23.5893 29.3679 25.1154 28.2426 26.2406C27.1174 27.3659 25.5913 27.998 24 27.998H14C12.4087 27.998 10.8826 27.3659 9.75736 26.2406C8.63214 25.1154 8 23.5893 8 21.998V18C8 16.4087 8.63214 14.8826 9.75736 13.7574C10.8826 12.6321 12.4087 12 14 12H20Z" fill="#5757FB"/>
<path d="M12 20V18H18C19.0609 18 20.0783 17.5786 20.8284 16.8284C21.5786 16.0783 22 15.0609 22 14V10C22 8.93913 21.5786 7.92172 20.8284 7.17157C20.0783 6.42143 19.0609 6 18 6H8C6.93913 6 5.92172 6.42143 5.17157 7.17157C4.42143 7.92172 4 8.93913 4 10V14C4.00002 14.7021 4.18485 15.3919 4.53592 15.9999C4.887 16.608 5.39194 17.1129 6 17.464V19.66C4.82984 19.246 3.81682 18.4794 3.10046 17.4657C2.38409 16.4521 1.99962 15.2412 2 14V10C2 8.4087 2.63214 6.88258 3.75736 5.75736C4.88258 4.63214 6.4087 4 8 4H18C19.5913 4 21.1174 4.63214 22.2426 5.75736C23.3679 6.88258 24 8.4087 24 10V14C24 15.5913 23.3679 17.1174 22.2426 18.2426C21.1174 19.3679 19.5913 20 18 20H12Z" fill="#5757FB"/>
</svg>
