<svg width="18" height="18" viewBox="0 0 18 18" fill="none" xmlns="http://www.w3.org/2000/svg">
<path d="M16.6009 0.0853256C12.7965 1.55049 8.99197 3.01541 5.19813 4.50766C4.92611 4.61469 4.63511 4.89813 4.52877 5.16883C3.03213 8.97937 1.56707 12.8023 0.0911791 16.621C-0.0670477 17.0304 -0.0289878 17.4033 0.28155 17.7169C0.593478 18.032 0.96663 18.066 1.37471 17.9078C5.17632 16.4353 8.97868 14.9645 12.7823 13.4975C13.139 13.3599 13.3676 13.122 13.5045 12.7661C14.9595 8.9818 16.42 5.19951 17.8766 1.4157C17.9374 1.25764 17.9741 1.09023 18 1.002C17.9825 0.220835 17.314 -0.189297 16.6009 0.0853256ZM9.0723 11.3649C7.79369 11.4102 6.64886 10.2879 6.64847 8.98822C6.64783 7.72778 7.72459 6.62861 8.97394 6.6143C10.2211 6.59992 11.3166 7.67326 11.347 8.93976C11.3775 10.1955 10.322 11.3204 9.0723 11.3649Z" fill="#5757FB"/>
</svg>
