<svg width="30" height="30" viewBox="0 0 30 30" fill="none" xmlns="http://www.w3.org/2000/svg">
<path d="M28.3333 16.3333V15C28.3333 7.63599 22.364 1.66666 15 1.66666C7.63596 1.66666 1.66663 7.63599 1.66663 15C1.66663 18.0013 2.65863 20.772 4.33329 23" stroke="#5757FB" stroke-width="1.5" stroke-linecap="round" stroke-linejoin="round"/>
<path d="M16.3333 1.73199C16.3333 1.73199 20.3333 6.99866 20.3333 14.9987V16.332M13.6666 1.73199C13.6666 1.73199 9.66659 6.99866 9.66659 14.9987V16.332M2.50659 19.6667H4.33326M2.50659 10.3333H27.4933M16.3333 28.3333V20.3333L20.3333 28.3333V20.3333M24.3333 28.3333H26.9999C27.5304 28.3333 28.0391 28.1226 28.4141 27.7475C28.7892 27.3725 28.9999 26.8638 28.9999 26.3333C28.9999 25.8029 28.7892 25.2942 28.4141 24.9191C28.0391 24.544 27.5304 24.3333 26.9999 24.3333H26.3333C25.8028 24.3333 25.2941 24.1226 24.919 23.7475C24.544 23.3725 24.3333 22.8638 24.3333 22.3333C24.3333 21.8029 24.544 21.2942 24.919 20.9191C25.2941 20.544 25.8028 20.3333 26.3333 20.3333H28.3333M8.33326 28.3333V20.3333H9.66659C10.3738 20.3333 11.0521 20.6143 11.5522 21.1144C12.0523 21.6145 12.3333 22.2928 12.3333 23V25.6667C12.3333 26.3739 12.0523 27.0522 11.5522 27.5523C11.0521 28.0524 10.3738 28.3333 9.66659 28.3333H8.33326Z" stroke="#5757FB" stroke-width="1.5" stroke-linecap="round" stroke-linejoin="round"/>
</svg>
