<svg width="24" height="23" viewBox="0 0 24 23" fill="none" xmlns="http://www.w3.org/2000/svg">
<path d="M12 0C11.8913 0 11.7829 0.0345303 11.6904 0.104608L0.190634 9.09011C-0.0243625 9.2603 -0.0643228 9.57475 0.105674 9.79499C0.275671 10.0102 0.589767 10.0502 0.809764 9.88005L1.50018 9.34039V22.4994C1.50018 22.7748 1.72518 23 2.00017 23H9.00005V13.9901H14.9999V23H21.9998C22.2748 23 22.4998 22.7748 22.4998 22.4994V9.34039L23.1902 9.88005C23.2852 9.95013 23.3898 9.98563 23.4998 9.98563C23.6498 9.98563 23.7943 9.92013 23.8943 9.79499C24.0643 9.57475 24.0244 9.2603 23.8094 9.09011L12.3096 0.104608C12.2171 0.0345303 12.1087 0 12 0ZM16.9999 1.97679V2.50276L19.9999 4.84519V1.97679H16.9999Z" fill="#5757FB"/>
</svg>
