<svg width="24" height="24" viewBox="0 0 24 24" fill="none" xmlns="http://www.w3.org/2000/svg">
<path d="M22.0187 1.98126C19.375 -0.662494 15.0968 -0.662494 12.4562 1.98126L9.4281 5.00938L11.0218 6.60313L14.05 3.57501C15.7312 1.89376 18.5687 1.71563 20.425 3.57501C22.2843 5.43438 22.1062 8.26876 20.425 9.95001L17.3968 12.9781L18.9937 14.575L22.0218 11.5469C24.6593 8.90313 24.6593 4.62501 22.0187 1.98126ZM9.9531 20.425C8.27185 22.1063 5.43435 22.2844 3.5781 20.425C1.71873 18.5656 1.89685 15.7313 3.5781 14.05L6.60623 11.0219L5.00935 9.42501L1.98123 12.4531C-0.662524 15.0969 -0.662524 19.375 1.98123 22.0156C4.62497 24.6563 8.9031 24.6594 11.5437 22.0156L14.5718 18.9875L12.9781 17.3938L9.9531 20.425ZM4.13435 2.54376C4.08736 2.49723 4.02391 2.47113 3.95779 2.47113C3.89166 2.47113 3.82821 2.49723 3.78123 2.54376L2.54373 3.78126C2.4972 3.82824 2.4711 3.8917 2.4711 3.95782C2.4711 4.02394 2.4972 4.08739 2.54373 4.13438L19.8687 21.4594C19.9656 21.5563 20.125 21.5563 20.2218 21.4594L21.4593 20.2219C21.5562 20.125 21.5562 19.9656 21.4593 19.8688L4.13435 2.54376Z" fill="#5757FB"/>
</svg>
