<svg width="32" height="30" viewBox="0 0 32 30" fill="none" xmlns="http://www.w3.org/2000/svg">
<path d="M8.01294 20.0315L11.075 11.5842C11.633 10.4111 12.4847 9.44179 13.4612 11.7674C14.3626 13.9147 15.7056 17.8454 16.5002 20.0351M9.40322 16.4041H15.0675" stroke="#5757FB" stroke-width="1.5" stroke-linecap="round" stroke-linejoin="round"/>
<path d="M5.53576 5.86905C3.7597 7.46799 3.7597 10.0423 3.7597 15.1886C3.7597 20.3348 3.7597 22.9091 5.53576 24.5081C7.31426 26.107 10.1725 26.107 15.8913 26.107C21.6102 26.107 24.4696 26.107 26.2456 24.5081M5.53576 5.86905C7.31305 4.2701 10.1725 4.2701 15.8913 4.2701C21.6102 4.2701 24.4708 4.2701 26.2456 5.86905C28.0229 7.46799 28.0229 10.0423 28.0229 15.1886C28.0229 20.3348 28.0217 22.9091 26.2456 24.5081M5.53576 5.86905L26.2456 24.5081M5.53576 5.86905L1.33337 1.66666M26.2456 24.5081L30.2709 28.5333" stroke="#5757FB" stroke-width="1.5" stroke-linecap="round" stroke-linejoin="round"/>
<path d="M23.7573 11.5333V15.1667M23.7573 15.1667V19.9502M23.7573 15.1667H21.3092C21.018 15.1667 20.7293 15.2201 20.4575 15.3256C18.4036 16.1227 18.4036 19.0864 20.4575 19.8835C20.7305 19.989 21.018 20.0424 21.3092 20.0424H23.7573" stroke="#5757FB" stroke-width="1.5" stroke-linecap="round" stroke-linejoin="round"/>
</svg>
