<svg width="18" height="23" viewBox="0 0 18 23" fill="none" xmlns="http://www.w3.org/2000/svg">
<path d="M9 0C8.0685 0 7.3125 0.7728 7.3125 1.725V2.52461C4.40233 3.29141 2.25 5.98552 2.25 9.2V16.1L0.522949 17.4297H0.520752C0.361117 17.5336 0.229705 17.677 0.138679 17.8466C0.0476533 18.0162 -4.48944e-05 18.2065 3.17069e-08 18.4C3.17069e-08 18.705 0.118527 18.9975 0.329505 19.2132C0.540484 19.4288 0.826631 19.55 1.125 19.55H9H16.875C17.1734 19.55 17.4595 19.4288 17.6705 19.2132C17.8815 18.9975 18 18.705 18 18.4C18 18.2065 17.9523 18.0162 17.8613 17.8466C17.7703 17.677 17.6389 17.5336 17.4792 17.4297L15.75 16.1V9.2C15.75 5.98552 13.5977 3.29141 10.6875 2.52461V1.725C10.6875 0.7728 9.9315 0 9 0ZM6.75 20.7C6.75 21.965 7.7625 23 9 23C10.2375 23 11.25 21.965 11.25 20.7H6.75Z" fill="#5757FB"/>
</svg>
