<svg width="192" height="192" viewBox="0 0 192 192" fill="none" xmlns="http://www.w3.org/2000/svg">
<circle cx="96" cy="96" r="96" fill="#DFDFDF"/>
<circle cx="96" cy="96" r="87" fill="#5757FB"/>
<path d="M95.4766 61.0002C95.0793 61.0064 94.7006 61.17 94.4238 61.455C94.147 61.7401 93.9946 62.1234 94 62.5207V95.5207C93.9972 95.7195 94.0339 95.9168 94.108 96.1013C94.1822 96.2857 94.2922 96.4536 94.4318 96.5951C94.5713 96.7367 94.7376 96.8491 94.921 96.9258C95.1044 97.0025 95.3012 97.0421 95.5 97.0421C95.6988 97.0421 95.8956 97.0025 96.079 96.9258C96.2624 96.8491 96.4287 96.7367 96.5682 96.5951C96.7078 96.4536 96.8178 96.2857 96.892 96.1013C96.9661 95.9168 97.0028 95.7195 97 95.5207V62.5207C97.0027 62.32 96.9652 62.1208 96.8896 61.9349C96.814 61.749 96.7018 61.5801 96.5597 61.4384C96.4177 61.2966 96.2486 61.1847 96.0626 61.1095C95.8765 61.0342 95.6772 60.997 95.4766 61.0002ZM85.0557 62.6642C84.8702 62.6596 84.6854 62.6894 84.5107 62.7521C70.8754 67.454 61 80.3212 61 95.5207C61 114.632 76.5401 130.021 95.5 130.021C114.46 130.021 130 114.632 130 95.5207C130 80.3212 120.125 67.454 106.489 62.7521C106.302 62.6847 106.104 62.6551 105.905 62.665C105.707 62.6749 105.512 62.7242 105.333 62.8099C105.154 62.8957 104.993 63.0163 104.861 63.1646C104.728 63.3129 104.627 63.486 104.562 63.6739C104.497 63.8618 104.47 64.0608 104.483 64.2591C104.496 64.4575 104.548 64.6513 104.636 64.8294C104.724 65.0075 104.847 65.1663 104.997 65.2965C105.147 65.4268 105.322 65.5259 105.511 65.5881C117.975 69.8862 127 81.6202 127 95.5207C127 113.009 112.84 127.021 95.5 127.021C78.1599 127.021 64 113.009 64 95.5207C64 81.6202 73.0246 69.8862 85.4893 65.5881C85.8246 65.4771 86.11 65.2513 86.2952 64.9505C86.4804 64.6498 86.5536 64.2933 86.5018 63.9439C86.4499 63.5944 86.2765 63.2745 86.012 63.0405C85.7474 62.8064 85.4088 62.6732 85.0557 62.6642Z" fill="white"/>
</svg>
