<svg width="20" height="20" viewBox="0 0 20 20" fill="none" xmlns="http://www.w3.org/2000/svg">
<path d="M9.55165 0.908346C9.73507 0.536762 10.2649 0.536761 10.4484 0.908345L12.9738 6.02458C13.0465 6.172 13.1871 6.27423 13.3498 6.29801L18.9981 7.12359C19.4081 7.18351 19.5715 7.68743 19.2747 7.97651L15.1884 11.9565C15.0705 12.0714 15.0166 12.237 15.0445 12.3992L16.0087 18.0213C16.0788 18.4298 15.65 18.7413 15.2832 18.5484L10.2327 15.8924C10.087 15.8158 9.91297 15.8158 9.76728 15.8924L4.71682 18.5484C4.35 18.7413 3.92123 18.4298 3.99129 18.0213L4.95554 12.3992C4.98337 12.237 4.92954 12.0714 4.81161 11.9565L0.725339 7.97651C0.428542 7.68743 0.591935 7.18351 1.00189 7.12359L6.65018 6.29801C6.81286 6.27423 6.95345 6.172 7.02622 6.02458L9.55165 0.908346Z" stroke="#5757FB" stroke-linecap="round" stroke-linejoin="round"/>
</svg>
