<svg width="18" height="18" viewBox="0 0 18 18" fill="none" xmlns="http://www.w3.org/2000/svg">
<path d="M18 16.8234C18 16.9639 17.9209 17.0927 17.7627 17.2098C17.6045 17.3268 17.3613 17.4234 17.0332 17.4995C16.7051 17.5756 16.3682 17.6459 16.0225 17.7102C15.6768 17.7746 15.2344 17.8244 14.6953 17.8595C14.1562 17.8946 13.6875 17.921 13.2891 17.9385C12.8906 17.9561 12.3779 17.9707 11.751 17.9824C11.124 17.9941 10.6494 18 10.3271 18H7.67285L6.24902 17.9824L4.71094 17.9385L3.30469 17.8595L1.97754 17.7102L0.966797 17.4995L0.237305 17.2098L0 16.8234C0.0234375 15.7932 0.667969 14.8829 1.93359 14.0927C3.19922 13.3024 4.80469 12.7785 6.75 12.521V11.9415C6.14062 11.6722 5.61328 11.2917 5.16797 10.8C4.72266 10.3083 4.37109 9.73171 4.11328 9.07024C3.85547 8.40878 3.66797 7.70049 3.55078 6.94537C3.43359 6.19024 3.375 5.37366 3.375 4.49561C3.375 3.74634 3.52148 3.07902 3.81445 2.49366C4.10742 1.90829 4.51172 1.43707 5.02734 1.08C5.54297 0.722927 6.13477 0.453659 6.80273 0.272195C7.4707 0.0907317 8.20312 0 9 0C9.79688 0 10.5293 0.0907317 11.1973 0.272195C11.8652 0.453659 12.457 0.722927 12.9727 1.08C13.4883 1.43707 13.8926 1.90829 14.1855 2.49366C14.4785 3.07902 14.625 3.74634 14.625 4.49561C14.625 8.59317 13.5 11.0868 11.25 11.9766V12.521C13.1953 12.7785 14.8008 13.3024 16.0664 14.0927C17.332 14.8829 17.9766 15.7932 18 16.8234Z" fill="#5757FB"/>
</svg>
