<svg width="20" height="22" viewBox="0 0 20 22" fill="none" xmlns="http://www.w3.org/2000/svg">
<path d="M13.9167 4.54169L5.52083 9.70835M5.52083 12.9375L13.9167 17.4584M13.9167 4.54169L5.52083 9.70835M5.52083 12.9375L13.9167 17.4584M6.16667 11C6.16667 12.4268 5.01007 13.5834 3.58333 13.5834C2.1566 13.5834 1 12.4268 1 11C1 9.57329 2.1566 8.41669 3.58333 8.41669C5.01007 8.41669 6.16667 9.57329 6.16667 11ZM19.0833 3.25002C19.0833 4.67676 17.9267 5.83335 16.5 5.83335C15.0733 5.83335 13.9167 4.67676 13.9167 3.25002C13.9167 1.82328 15.0733 0.666687 16.5 0.666687C17.9267 0.666687 19.0833 1.82328 19.0833 3.25002ZM19.0833 18.75C19.0833 20.1768 17.9267 21.3334 16.5 21.3334C15.0733 21.3334 13.9167 20.1768 13.9167 18.75C13.9167 17.3233 15.0733 16.1667 16.5 16.1667C17.9267 16.1667 19.0833 17.3233 19.0833 18.75ZM6.16667 11C6.16667 12.4268 5.01007 13.5834 3.58333 13.5834C2.1566 13.5834 1 12.4268 1 11C1 9.57328 2.1566 8.41669 3.58333 8.41669C5.01007 8.41669 6.16667 9.57328 6.16667 11Z" stroke="#5757FB" stroke-width="0.833333" stroke-linejoin="round"/>
</svg>
