<svg width="32" height="32" viewBox="0 0 32 32" fill="none" xmlns="http://www.w3.org/2000/svg">
<path d="M31.3296 9.34401C31.3162 9.16806 31.2666 8.99677 31.1839 8.8409C31.1012 8.68504 30.9871 8.54796 30.8489 8.43827C30.7107 8.32859 30.5512 8.24867 30.3807 8.20354C30.2101 8.15841 30.032 8.14904 29.8576 8.17601C27.0704 8.62081 20.536 11.2 16 11.2C11.464 11.2 4.9296 8.62081 2.1424 8.17601C1.96814 8.14904 1.79018 8.15836 1.6197 8.2034C1.44921 8.24843 1.28986 8.32821 1.15166 8.43772C1.01345 8.54724 0.899359 8.68413 0.816544 8.83981C0.733729 8.99549 0.683975 9.1666 0.6704 9.34241C0.4432 11.7936 0 18.32 0 19.3088C0 20.6368 5.5552 23.68 9.6 23.68C13.5232 23.68 14.32 19.3088 16 19.3088C17.68 19.3088 18.4768 23.68 22.4 23.68C26.4448 23.68 32 20.6368 32 19.3088C32 18.32 31.5568 11.7936 31.3296 9.34401ZM12.256 17.152C11.6912 17.6608 10.12 18.864 8.2064 18.488C6.2928 18.112 5.136 16.3712 4.7408 15.6752C4.69429 15.5949 4.67596 15.5014 4.68871 15.4095C4.70147 15.3176 4.74458 15.2326 4.8112 15.168C5.376 14.6592 6.9472 13.456 8.8624 13.832C10.776 14.208 11.9328 15.9488 12.328 16.6448C12.3743 16.7253 12.3924 16.8189 12.3793 16.9108C12.3663 17.0027 12.3229 17.0876 12.256 17.152ZM27.2592 15.6752C26.8656 16.3728 25.7088 18.112 23.7936 18.488C21.88 18.864 20.3072 17.6608 19.744 17.152C19.6771 17.0876 19.6337 17.0027 19.6207 16.9108C19.6076 16.8189 19.6257 16.7253 19.672 16.6448C20.0656 15.9472 21.2224 14.208 23.1376 13.832C25.0512 13.456 26.624 14.6592 27.1872 15.168C27.2541 15.2324 27.2975 15.3173 27.3105 15.4092C27.3236 15.5011 27.3055 15.5948 27.2592 15.6752Z" fill="#5757FB"/>
</svg>
